<svg width="263" height="71" viewBox="0 0 263 71" fill="none" xmlns="http://www.w3.org/2000/svg">
<path d="M63.0526 13.0654C63.1363 29.5113 48.1013 43.3947 30.2283 43.2846V13.0654H13.8162V58.3943C23.2427 58.131 32.8586 59.2076 42.0908 57.1268C63.8132 52.2315 79.629 33.7528 79.4647 13.0654H63.0526Z" fill="white"/>
<path d="M105.814 58.0289C105.363 58.0289 105.033 57.9255 104.823 57.718C104.612 57.5106 104.433 57.269 104.283 56.9926L95.7713 37.332C95.7108 37.2218 95.6815 37.0976 95.6815 36.959C95.6815 36.7102 95.7786 36.4964 95.974 36.3162C96.1689 36.137 96.4165 36.0469 96.7171 36.0469H101.806C102.195 36.0469 102.496 36.1442 102.706 36.337C102.916 36.5308 103.051 36.7243 103.112 36.9176L108.2 50.0691L113.334 36.9176C113.394 36.7243 113.529 36.5308 113.739 36.337C113.949 36.1442 114.249 36.0469 114.64 36.0469H119.729C119.999 36.0469 120.239 36.137 120.449 36.3162C120.659 36.4964 120.764 36.7102 120.764 36.959C120.764 37.0976 120.734 37.2218 120.674 37.332L112.163 56.9926C112.043 57.269 111.87 57.5106 111.645 57.718C111.42 57.9255 111.067 58.0289 110.587 58.0289H105.814Z" fill="white"/>
<path d="M134.454 53.3853C135.805 53.3853 136.788 53.0121 137.404 52.2658C138.018 51.5196 138.372 50.4001 138.462 48.9078C138.491 48.493 138.507 47.9405 138.507 47.2495C138.507 46.5589 138.491 46.0057 138.462 45.5911C138.372 44.1264 138.018 43.0143 137.404 42.2537C136.788 41.4938 135.805 41.1134 134.454 41.1134C133.163 41.1134 132.195 41.4938 131.549 42.2537C130.904 43.0143 130.551 44.1264 130.491 45.5911C130.461 46.0057 130.446 46.5589 130.446 47.2495C130.446 47.9405 130.461 48.493 130.491 48.9078C130.551 50.4001 130.904 51.5196 131.549 52.2658C132.195 53.0121 133.163 53.3853 134.454 53.3853ZM134.454 58.4433C131.932 58.4433 129.808 58.0698 128.082 57.3238C126.355 56.5775 125.035 55.5068 124.119 54.1108C123.203 52.7153 122.685 51.0498 122.565 49.115C122.535 48.5625 122.521 47.9336 122.521 47.2287C122.521 46.5238 122.535 45.9092 122.565 45.3837C122.685 43.4214 123.225 41.75 124.187 40.3671C125.147 38.9857 126.49 37.9212 128.217 37.1752C129.943 36.4289 132.022 36.0557 134.454 36.0557C136.915 36.0557 139.009 36.4289 140.736 37.1752C142.462 37.9212 143.805 38.9857 144.766 40.3671C145.727 41.75 146.267 43.4214 146.387 45.3837C146.417 45.9092 146.433 46.5238 146.433 47.2287C146.433 47.9336 146.417 48.5625 146.387 49.115C146.267 51.0498 145.749 52.7153 144.834 54.1108C143.918 55.5068 142.597 56.5775 140.871 57.3238C139.144 58.0698 137.005 58.4433 134.454 58.4433Z" fill="white"/>
<path d="M152.016 58.0281C151.686 58.0281 151.415 57.9246 151.206 57.7172C150.996 57.5098 150.89 57.2682 150.89 56.9918V28.7815C150.89 28.4778 150.996 28.229 151.206 28.0352C151.415 27.8424 151.686 27.7451 152.016 27.7451H157.33C157.66 27.7451 157.93 27.8424 158.141 28.0352C158.35 28.229 158.456 28.4778 158.456 28.7815V56.9918C158.456 57.2682 158.35 57.5098 158.141 57.7172C157.93 57.9246 157.66 58.0281 157.33 58.0281H152.016Z" fill="white"/>
<path d="M170.75 45.0523H178.36V44.9696C178.36 44.0573 178.217 43.2769 177.932 42.6269C177.647 41.9777 177.212 41.4733 176.626 41.1136C176.041 40.7547 175.343 40.5748 174.532 40.5748C173.751 40.5748 173.076 40.7547 172.506 41.1136C171.935 41.4733 171.5 41.9777 171.2 42.6269C170.9 43.2769 170.75 44.0573 170.75 44.9696V45.0523ZM174.577 58.4433C171.035 58.4433 168.212 57.5589 166.111 55.7899C164.009 54.0217 162.914 51.3956 162.824 47.9131V46.4619C162.914 44.2788 163.447 42.4061 164.422 40.8441C165.398 39.283 166.749 38.0945 168.476 37.2786C170.202 36.4638 172.22 36.0557 174.532 36.0557C177.174 36.0557 179.358 36.5398 181.084 37.5066C182.811 38.4746 184.109 39.7872 184.98 41.4455C185.85 43.1039 186.286 44.9974 186.286 47.1255V48.1202C186.286 48.4244 186.18 48.6732 185.971 48.8665C185.76 49.0603 185.49 49.1566 185.16 49.1566H170.75V49.4467C170.779 50.2489 170.937 50.981 171.222 51.6443C171.507 52.3074 171.928 52.8329 172.483 53.2195C173.038 53.6069 173.722 53.8002 174.532 53.8002C175.133 53.8002 175.636 53.7109 176.041 53.5304C176.446 53.3512 176.784 53.1438 177.054 52.9086C177.325 52.674 177.534 52.4733 177.685 52.3074C177.955 52.0035 178.173 51.8169 178.338 51.7478C178.502 51.679 178.765 51.6443 179.126 51.6443H184.71C185.009 51.6443 185.257 51.727 185.453 51.8931C185.648 52.0587 185.73 52.2805 185.7 52.5562C185.67 53.0267 185.415 53.5928 184.935 54.2558C184.454 54.9192 183.756 55.5761 182.841 56.2253C181.925 56.8753 180.777 57.407 179.396 57.8213C178.015 58.2361 176.408 58.4433 174.577 58.4433Z" fill="white"/>
<path d="M191.644 58.0287C191.313 58.0287 191.043 57.9253 190.834 57.7178C190.623 57.5104 190.518 57.2688 190.518 56.9924V37.083C190.518 36.7791 190.623 36.5306 190.834 36.3368C191.043 36.144 191.313 36.0467 191.644 36.0467H196.823C197.153 36.0467 197.431 36.144 197.656 36.3368C197.881 36.5306 197.994 36.7791 197.994 37.083V38.6584C198.744 37.8023 199.75 37.083 201.011 36.5026C202.272 35.9224 203.758 35.6318 205.469 35.6318C207.21 35.6318 208.749 35.9915 210.085 36.71C211.42 37.4291 212.472 38.479 213.237 39.8609C214.003 41.2432 214.385 43.3804 214.385 45.4256V56.9924C214.385 57.2688 214.28 57.5104 214.071 57.7178C213.86 57.9253 213.59 58.0287 213.26 58.0287H207.586C207.285 58.0287 207.023 57.9253 206.798 57.7178C206.572 57.5104 206.46 57.2688 206.46 56.9924V45.6743C206.46 44.3754 206.122 43.3734 205.447 42.6685C204.771 41.9636 203.772 41.6114 202.452 41.6114C201.22 41.6114 200.238 41.9636 199.502 42.6685C198.766 43.3734 198.399 44.3754 198.399 45.6743V56.9924C198.399 57.2688 198.286 57.5104 198.061 57.7178C197.836 57.9253 197.573 58.0287 197.273 58.0287H191.644Z" fill="white"/>
<path d="M235.01 36.0469C235.34 36.0469 235.618 36.1442 235.843 36.337C236.069 36.5308 236.181 36.7795 236.181 37.0832V40.4412C236.181 40.7459 236.069 40.9947 235.843 41.188C235.618 41.3816 235.34 41.4781 235.01 41.4781H229.381V49.2815C229.381 50.2213 229.576 50.9676 229.967 51.52C230.357 52.0735 231.017 52.349 231.948 52.349H235.416C235.746 52.349 236.016 52.4462 236.226 52.6395C236.436 52.8334 236.541 53.0821 236.541 53.3858V56.9926C236.541 57.269 236.436 57.5109 236.226 57.718C236.016 57.9255 235.746 58.0289 235.416 58.0289H231.227C229.306 58.0289 227.648 57.7458 226.251 57.1792C224.856 56.6132 223.782 55.7283 223.032 54.5261C222.281 53.3237 221.906 51.7688 221.906 49.8617V41.4781H218.394C218.063 41.4781 217.786 41.3816 217.56 41.188C217.335 40.9947 217.222 40.7459 217.222 40.4412V37.0832C217.222 36.7795 217.335 36.5308 217.56 36.337C217.786 36.1442 218.063 36.0469 218.394 36.0469H235.01Z" fill="white"/>
<path d="M243.031 33.3616C242.701 33.3616 242.431 33.265 242.221 33.0715C242.01 32.8782 241.906 32.6294 241.906 32.3252V28.594C241.906 28.3177 242.01 28.0757 242.221 27.8682C242.431 27.6611 242.701 27.5576 243.031 27.5576H248.435C248.735 27.5576 248.998 27.6611 249.223 27.8682C249.448 28.0757 249.561 28.3177 249.561 28.594V32.3252C249.561 32.6294 249.448 32.8782 249.223 33.0715C248.998 33.265 248.735 33.3616 248.435 33.3616H243.031Z" fill="white"/>
<path d="M242.861 58.0289C242.53 58.0289 242.26 57.9255 242.051 57.718C241.84 57.5106 241.735 57.269 241.735 56.9926V37.0832C241.735 36.7793 241.84 36.5308 242.051 36.337C242.26 36.1442 242.53 36.0469 242.861 36.0469H248.175C248.505 36.0469 248.775 36.1442 248.986 36.337C249.196 36.5308 249.301 36.7793 249.301 37.0832V56.9926C249.301 57.269 249.196 57.5106 248.986 57.718C248.775 57.9255 248.505 58.0289 248.175 58.0289H242.861Z" fill="white"/>
</svg>
